<?xml version="1.0" encoding="utf-8" standalone="no"?>
<!DOCTYPE svg PUBLIC "-//W3C//DTD SVG 1.1//EN"
  "http://www.w3.org/Graphics/SVG/1.1/DTD/svg11.dtd">
<!-- Created with matplotlib (https://matplotlib.org/) -->
<svg height="263.63625pt" version="1.1" viewBox="0 0 368.925 263.63625" width="368.925pt" xmlns="http://www.w3.org/2000/svg" xmlns:xlink="http://www.w3.org/1999/xlink">
 <metadata>
  <rdf:RDF xmlns:cc="http://creativecommons.org/ns#" xmlns:dc="http://purl.org/dc/elements/1.1/" xmlns:rdf="http://www.w3.org/1999/02/22-rdf-syntax-ns#">
   <cc:Work>
    <dc:type rdf:resource="http://purl.org/dc/dcmitype/StillImage"/>
    <dc:date>2021-03-03T18:22:50.900102</dc:date>
    <dc:format>image/svg+xml</dc:format>
    <dc:creator>
     <cc:Agent>
      <dc:title>Matplotlib v3.3.4, https://matplotlib.org/</dc:title>
     </cc:Agent>
    </dc:creator>
   </cc:Work>
  </rdf:RDF>
 </metadata>
 <defs>
  <style type="text/css">*{stroke-linecap:butt;stroke-linejoin:round;}</style>
 </defs>
 <g id="figure_1">
  <g id="patch_1">
   <path d="M -0 263.63625 
L 368.925 263.63625 
L 368.925 0 
L -0 0 
z
" style="fill:none;"/>
  </g>
  <g id="axes_1">
   <g id="patch_2">
    <path d="M 26.925 239.758125 
L 361.725 239.758125 
L 361.725 22.318125 
L 26.925 22.318125 
z
" style="fill:#ffffff;"/>
   </g>
   <g id="patch_3">
    <path clip-path="url(#p410ece708c)" d="M 42.143182 239.758125 
L 75.961364 239.758125 
L 75.961364 103.673227 
L 42.143182 103.673227 
z
" style="fill:url(#h735349cf2d);opacity:0.7;stroke:#2ca02c;stroke-dasharray:5,8.25;stroke-dashoffset:0;stroke-linejoin:miter;stroke-width:5;"/>
   </g>
   <g id="patch_4">
    <path clip-path="url(#p410ece708c)" d="M 109.779545 239.758125 
L 143.597727 239.758125 
L 143.597727 139.173635 
L 109.779545 139.173635 
z
" style="fill:url(#h735349cf2d);opacity:0.7;stroke:#2ca02c;stroke-dasharray:5,8.25;stroke-dashoffset:0;stroke-linejoin:miter;stroke-width:5;"/>
   </g>
   <g id="patch_5">
    <path clip-path="url(#p410ece708c)" d="M 177.415909 239.758125 
L 211.234091 239.758125 
L 211.234091 32.672411 
L 177.415909 32.672411 
z
" style="fill:url(#h735349cf2d);opacity:0.7;stroke:#2ca02c;stroke-dasharray:5,8.25;stroke-dashoffset:0;stroke-linejoin:miter;stroke-width:5;"/>
   </g>
   <g id="patch_6">
    <path clip-path="url(#p410ece708c)" d="M 245.052273 239.758125 
L 278.870455 239.758125 
L 278.870455 68.172819 
L 245.052273 68.172819 
z
" style="fill:url(#h735349cf2d);opacity:0.7;stroke:#2ca02c;stroke-dasharray:5,8.25;stroke-dashoffset:0;stroke-linejoin:miter;stroke-width:5;"/>
   </g>
   <g id="patch_7">
    <path clip-path="url(#p410ece708c)" d="M 312.688636 239.758125 
L 346.506818 239.758125 
L 346.506818 168.757309 
L 312.688636 168.757309 
z
" style="fill:url(#h735349cf2d);opacity:0.7;stroke:#2ca02c;stroke-dasharray:5,8.25;stroke-dashoffset:0;stroke-linejoin:miter;stroke-width:5;"/>
   </g>
   <g id="matplotlib.axis_1">
    <g id="xtick_1">
     <g id="line2d_1">
      <defs>
       <path d="M 0 0 
L 0 3.5 
" id="m156585fe26" style="stroke:#000000;stroke-width:0.8;"/>
      </defs>
      <g>
       <use style="stroke:#000000;stroke-width:0.8;" x="59.052273" xlink:href="#m156585fe26" y="239.758125"/>
      </g>
     </g>
     <g id="text_1">
      <!-- Cool -->
      <g transform="translate(48.053054 254.356563)scale(0.1 -0.1)">
       <defs>
        <path d="M 64.40625 67.28125 
L 64.40625 56.890625 
Q 59.421875 61.53125 53.78125 63.8125 
Q 48.140625 66.109375 41.796875 66.109375 
Q 29.296875 66.109375 22.65625 58.46875 
Q 16.015625 50.828125 16.015625 36.375 
Q 16.015625 21.96875 22.65625 14.328125 
Q 29.296875 6.6875 41.796875 6.6875 
Q 48.140625 6.6875 53.78125 8.984375 
Q 59.421875 11.28125 64.40625 15.921875 
L 64.40625 5.609375 
Q 59.234375 2.09375 53.4375 0.328125 
Q 47.65625 -1.421875 41.21875 -1.421875 
Q 24.65625 -1.421875 15.125 8.703125 
Q 5.609375 18.84375 5.609375 36.375 
Q 5.609375 53.953125 15.125 64.078125 
Q 24.65625 74.21875 41.21875 74.21875 
Q 47.75 74.21875 53.53125 72.484375 
Q 59.328125 70.75 64.40625 67.28125 
z
" id="DejaVuSans-67"/>
        <path d="M 30.609375 48.390625 
Q 23.390625 48.390625 19.1875 42.75 
Q 14.984375 37.109375 14.984375 27.296875 
Q 14.984375 17.484375 19.15625 11.84375 
Q 23.34375 6.203125 30.609375 6.203125 
Q 37.796875 6.203125 41.984375 11.859375 
Q 46.1875 17.53125 46.1875 27.296875 
Q 46.1875 37.015625 41.984375 42.703125 
Q 37.796875 48.390625 30.609375 48.390625 
z
M 30.609375 56 
Q 42.328125 56 49.015625 48.375 
Q 55.71875 40.765625 55.71875 27.296875 
Q 55.71875 13.875 49.015625 6.21875 
Q 42.328125 -1.421875 30.609375 -1.421875 
Q 18.84375 -1.421875 12.171875 6.21875 
Q 5.515625 13.875 5.515625 27.296875 
Q 5.515625 40.765625 12.171875 48.375 
Q 18.84375 56 30.609375 56 
z
" id="DejaVuSans-111"/>
        <path d="M 9.421875 75.984375 
L 18.40625 75.984375 
L 18.40625 0 
L 9.421875 0 
z
" id="DejaVuSans-108"/>
       </defs>
       <use xlink:href="#DejaVuSans-67"/>
       <use x="69.824219" xlink:href="#DejaVuSans-111"/>
       <use x="131.005859" xlink:href="#DejaVuSans-111"/>
       <use x="192.1875" xlink:href="#DejaVuSans-108"/>
      </g>
     </g>
    </g>
    <g id="xtick_2">
     <g id="line2d_2">
      <g>
       <use style="stroke:#000000;stroke-width:0.8;" x="126.688636" xlink:href="#m156585fe26" y="239.758125"/>
      </g>
     </g>
     <g id="text_2">
      <!-- Cool++ -->
      <g transform="translate(107.30973 254.356563)scale(0.1 -0.1)">
       <defs>
        <path d="M 46 62.703125 
L 46 35.5 
L 73.1875 35.5 
L 73.1875 27.203125 
L 46 27.203125 
L 46 0 
L 37.796875 0 
L 37.796875 27.203125 
L 10.59375 27.203125 
L 10.59375 35.5 
L 37.796875 35.5 
L 37.796875 62.703125 
z
" id="DejaVuSans-43"/>
       </defs>
       <use xlink:href="#DejaVuSans-67"/>
       <use x="69.824219" xlink:href="#DejaVuSans-111"/>
       <use x="131.005859" xlink:href="#DejaVuSans-111"/>
       <use x="192.1875" xlink:href="#DejaVuSans-108"/>
       <use x="219.970703" xlink:href="#DejaVuSans-43"/>
       <use x="303.759766" xlink:href="#DejaVuSans-43"/>
      </g>
     </g>
    </g>
    <g id="xtick_3">
     <g id="line2d_3">
      <g>
       <use style="stroke:#000000;stroke-width:0.8;" x="194.325" xlink:href="#m156585fe26" y="239.758125"/>
      </g>
     </g>
     <g id="text_3">
      <!-- Java!!! -->
      <g transform="translate(177.748438 254.356563)scale(0.1 -0.1)">
       <defs>
        <path d="M 9.8125 72.90625 
L 19.671875 72.90625 
L 19.671875 5.078125 
Q 19.671875 -8.109375 14.671875 -14.0625 
Q 9.671875 -20.015625 -1.421875 -20.015625 
L -5.171875 -20.015625 
L -5.171875 -11.71875 
L -2.09375 -11.71875 
Q 4.4375 -11.71875 7.125 -8.046875 
Q 9.8125 -4.390625 9.8125 5.078125 
z
" id="DejaVuSans-74"/>
        <path d="M 34.28125 27.484375 
Q 23.390625 27.484375 19.1875 25 
Q 14.984375 22.515625 14.984375 16.5 
Q 14.984375 11.71875 18.140625 8.90625 
Q 21.296875 6.109375 26.703125 6.109375 
Q 34.1875 6.109375 38.703125 11.40625 
Q 43.21875 16.703125 43.21875 25.484375 
L 43.21875 27.484375 
z
M 52.203125 31.203125 
L 52.203125 0 
L 43.21875 0 
L 43.21875 8.296875 
Q 40.140625 3.328125 35.546875 0.953125 
Q 30.953125 -1.421875 24.3125 -1.421875 
Q 15.921875 -1.421875 10.953125 3.296875 
Q 6 8.015625 6 15.921875 
Q 6 25.140625 12.171875 29.828125 
Q 18.359375 34.515625 30.609375 34.515625 
L 43.21875 34.515625 
L 43.21875 35.40625 
Q 43.21875 41.609375 39.140625 45 
Q 35.0625 48.390625 27.6875 48.390625 
Q 23 48.390625 18.546875 47.265625 
Q 14.109375 46.140625 10.015625 43.890625 
L 10.015625 52.203125 
Q 14.9375 54.109375 19.578125 55.046875 
Q 24.21875 56 28.609375 56 
Q 40.484375 56 46.34375 49.84375 
Q 52.203125 43.703125 52.203125 31.203125 
z
" id="DejaVuSans-97"/>
        <path d="M 2.984375 54.6875 
L 12.5 54.6875 
L 29.59375 8.796875 
L 46.6875 54.6875 
L 56.203125 54.6875 
L 35.6875 0 
L 23.484375 0 
z
" id="DejaVuSans-118"/>
        <path d="M 15.09375 12.40625 
L 25 12.40625 
L 25 0 
L 15.09375 0 
z
M 15.09375 72.90625 
L 25 72.90625 
L 25 40.921875 
L 24.03125 23.484375 
L 16.109375 23.484375 
L 15.09375 40.921875 
z
" id="DejaVuSans-33"/>
       </defs>
       <use xlink:href="#DejaVuSans-74"/>
       <use x="29.492188" xlink:href="#DejaVuSans-97"/>
       <use x="90.771484" xlink:href="#DejaVuSans-118"/>
       <use x="149.951172" xlink:href="#DejaVuSans-97"/>
       <use x="211.230469" xlink:href="#DejaVuSans-33"/>
       <use x="251.318359" xlink:href="#DejaVuSans-33"/>
       <use x="291.40625" xlink:href="#DejaVuSans-33"/>
      </g>
     </g>
    </g>
    <g id="xtick_4">
     <g id="line2d_4">
      <g>
       <use style="stroke:#000000;stroke-width:0.8;" x="261.961364" xlink:href="#m156585fe26" y="239.758125"/>
      </g>
     </g>
     <g id="text_4">
      <!-- PythonSSS -->
      <g transform="translate(235.107457 254.356563)scale(0.1 -0.1)">
       <defs>
        <path d="M 19.671875 64.796875 
L 19.671875 37.40625 
L 32.078125 37.40625 
Q 38.96875 37.40625 42.71875 40.96875 
Q 46.484375 44.53125 46.484375 51.125 
Q 46.484375 57.671875 42.71875 61.234375 
Q 38.96875 64.796875 32.078125 64.796875 
z
M 9.8125 72.90625 
L 32.078125 72.90625 
Q 44.34375 72.90625 50.609375 67.359375 
Q 56.890625 61.8125 56.890625 51.125 
Q 56.890625 40.328125 50.609375 34.8125 
Q 44.34375 29.296875 32.078125 29.296875 
L 19.671875 29.296875 
L 19.671875 0 
L 9.8125 0 
z
" id="DejaVuSans-80"/>
        <path d="M 32.171875 -5.078125 
Q 28.375 -14.84375 24.75 -17.8125 
Q 21.140625 -20.796875 15.09375 -20.796875 
L 7.90625 -20.796875 
L 7.90625 -13.28125 
L 13.1875 -13.28125 
Q 16.890625 -13.28125 18.9375 -11.515625 
Q 21 -9.765625 23.484375 -3.21875 
L 25.09375 0.875 
L 2.984375 54.6875 
L 12.5 54.6875 
L 29.59375 11.921875 
L 46.6875 54.6875 
L 56.203125 54.6875 
z
" id="DejaVuSans-121"/>
        <path d="M 18.3125 70.21875 
L 18.3125 54.6875 
L 36.8125 54.6875 
L 36.8125 47.703125 
L 18.3125 47.703125 
L 18.3125 18.015625 
Q 18.3125 11.328125 20.140625 9.421875 
Q 21.96875 7.515625 27.59375 7.515625 
L 36.8125 7.515625 
L 36.8125 0 
L 27.59375 0 
Q 17.1875 0 13.234375 3.875 
Q 9.28125 7.765625 9.28125 18.015625 
L 9.28125 47.703125 
L 2.6875 47.703125 
L 2.6875 54.6875 
L 9.28125 54.6875 
L 9.28125 70.21875 
z
" id="DejaVuSans-116"/>
        <path d="M 54.890625 33.015625 
L 54.890625 0 
L 45.90625 0 
L 45.90625 32.71875 
Q 45.90625 40.484375 42.875 44.328125 
Q 39.84375 48.1875 33.796875 48.1875 
Q 26.515625 48.1875 22.3125 43.546875 
Q 18.109375 38.921875 18.109375 30.90625 
L 18.109375 0 
L 9.078125 0 
L 9.078125 75.984375 
L 18.109375 75.984375 
L 18.109375 46.1875 
Q 21.34375 51.125 25.703125 53.5625 
Q 30.078125 56 35.796875 56 
Q 45.21875 56 50.046875 50.171875 
Q 54.890625 44.34375 54.890625 33.015625 
z
" id="DejaVuSans-104"/>
        <path d="M 54.890625 33.015625 
L 54.890625 0 
L 45.90625 0 
L 45.90625 32.71875 
Q 45.90625 40.484375 42.875 44.328125 
Q 39.84375 48.1875 33.796875 48.1875 
Q 26.515625 48.1875 22.3125 43.546875 
Q 18.109375 38.921875 18.109375 30.90625 
L 18.109375 0 
L 9.078125 0 
L 9.078125 54.6875 
L 18.109375 54.6875 
L 18.109375 46.1875 
Q 21.34375 51.125 25.703125 53.5625 
Q 30.078125 56 35.796875 56 
Q 45.21875 56 50.046875 50.171875 
Q 54.890625 44.34375 54.890625 33.015625 
z
" id="DejaVuSans-110"/>
        <path d="M 53.515625 70.515625 
L 53.515625 60.890625 
Q 47.90625 63.578125 42.921875 64.890625 
Q 37.9375 66.21875 33.296875 66.21875 
Q 25.25 66.21875 20.875 63.09375 
Q 16.5 59.96875 16.5 54.203125 
Q 16.5 49.359375 19.40625 46.890625 
Q 22.3125 44.4375 30.421875 42.921875 
L 36.375 41.703125 
Q 47.40625 39.59375 52.65625 34.296875 
Q 57.90625 29 57.90625 20.125 
Q 57.90625 9.515625 50.796875 4.046875 
Q 43.703125 -1.421875 29.984375 -1.421875 
Q 24.8125 -1.421875 18.96875 -0.25 
Q 13.140625 0.921875 6.890625 3.21875 
L 6.890625 13.375 
Q 12.890625 10.015625 18.65625 8.296875 
Q 24.421875 6.59375 29.984375 6.59375 
Q 38.421875 6.59375 43.015625 9.90625 
Q 47.609375 13.234375 47.609375 19.390625 
Q 47.609375 24.75 44.3125 27.78125 
Q 41.015625 30.8125 33.5 32.328125 
L 27.484375 33.5 
Q 16.453125 35.6875 11.515625 40.375 
Q 6.59375 45.0625 6.59375 53.421875 
Q 6.59375 63.09375 13.40625 68.65625 
Q 20.21875 74.21875 32.171875 74.21875 
Q 37.3125 74.21875 42.625 73.28125 
Q 47.953125 72.359375 53.515625 70.515625 
z
" id="DejaVuSans-83"/>
       </defs>
       <use xlink:href="#DejaVuSans-80"/>
       <use x="60.302734" xlink:href="#DejaVuSans-121"/>
       <use x="119.482422" xlink:href="#DejaVuSans-116"/>
       <use x="158.691406" xlink:href="#DejaVuSans-104"/>
       <use x="222.070312" xlink:href="#DejaVuSans-111"/>
       <use x="283.251953" xlink:href="#DejaVuSans-110"/>
       <use x="346.630859" xlink:href="#DejaVuSans-83"/>
       <use x="410.107422" xlink:href="#DejaVuSans-83"/>
       <use x="473.583984" xlink:href="#DejaVuSans-83"/>
      </g>
     </g>
    </g>
    <g id="xtick_5">
     <g id="line2d_5">
      <g>
       <use style="stroke:#000000;stroke-width:0.8;" x="329.597727" xlink:href="#m156585fe26" y="239.758125"/>
      </g>
     </g>
     <g id="text_5">
      <!-- PHP? -->
      <g transform="translate(317.153977 254.356563)scale(0.1 -0.1)">
       <defs>
        <path d="M 9.8125 72.90625 
L 19.671875 72.90625 
L 19.671875 43.015625 
L 55.515625 43.015625 
L 55.515625 72.90625 
L 65.375 72.90625 
L 65.375 0 
L 55.515625 0 
L 55.515625 34.71875 
L 19.671875 34.71875 
L 19.671875 0 
L 9.8125 0 
z
" id="DejaVuSans-72"/>
        <path d="M 19.09375 12.40625 
L 29 12.40625 
L 29 0 
L 19.09375 0 
z
M 28.71875 19.578125 
L 19.390625 19.578125 
L 19.390625 27.09375 
Q 19.390625 32.03125 20.75 35.203125 
Q 22.125 38.375 26.515625 42.578125 
L 30.90625 46.921875 
Q 33.6875 49.515625 34.9375 51.8125 
Q 36.1875 54.109375 36.1875 56.5 
Q 36.1875 60.84375 32.984375 63.53125 
Q 29.78125 66.21875 24.515625 66.21875 
Q 20.65625 66.21875 16.28125 64.5 
Q 11.921875 62.796875 7.171875 59.515625 
L 7.171875 68.703125 
Q 11.765625 71.484375 16.46875 72.84375 
Q 21.1875 74.21875 26.21875 74.21875 
Q 35.203125 74.21875 40.640625 69.484375 
Q 46.09375 64.75 46.09375 56.984375 
Q 46.09375 53.265625 44.328125 49.921875 
Q 42.578125 46.578125 38.1875 42.390625 
L 33.890625 38.1875 
Q 31.59375 35.890625 30.640625 34.59375 
Q 29.6875 33.296875 29.296875 32.078125 
Q 29 31.0625 28.859375 29.59375 
Q 28.71875 28.125 28.71875 25.59375 
z
" id="DejaVuSans-63"/>
       </defs>
       <use xlink:href="#DejaVuSans-80"/>
       <use x="60.302734" xlink:href="#DejaVuSans-72"/>
       <use x="135.498047" xlink:href="#DejaVuSans-80"/>
       <use x="195.800781" xlink:href="#DejaVuSans-63"/>
      </g>
     </g>
    </g>
   </g>
   <g id="matplotlib.axis_2">
    <g id="ytick_1">
     <g id="line2d_6">
      <defs>
       <path d="M 0 0 
L -3.5 0 
" id="m9ff9696b1d" style="stroke:#000000;stroke-width:0.8;"/>
      </defs>
      <g>
       <use style="stroke:#000000;stroke-width:0.8;" x="26.925" xlink:href="#m9ff9696b1d" y="239.758125"/>
      </g>
     </g>
     <g id="text_6">
      <!-- 0 -->
      <g transform="translate(13.5625 243.557344)scale(0.1 -0.1)">
       <defs>
        <path d="M 31.78125 66.40625 
Q 24.171875 66.40625 20.328125 58.90625 
Q 16.5 51.421875 16.5 36.375 
Q 16.5 21.390625 20.328125 13.890625 
Q 24.171875 6.390625 31.78125 6.390625 
Q 39.453125 6.390625 43.28125 13.890625 
Q 47.125 21.390625 47.125 36.375 
Q 47.125 51.421875 43.28125 58.90625 
Q 39.453125 66.40625 31.78125 66.40625 
z
M 31.78125 74.21875 
Q 44.046875 74.21875 50.515625 64.515625 
Q 56.984375 54.828125 56.984375 36.375 
Q 56.984375 17.96875 50.515625 8.265625 
Q 44.046875 -1.421875 31.78125 -1.421875 
Q 19.53125 -1.421875 13.0625 8.265625 
Q 6.59375 17.96875 6.59375 36.375 
Q 6.59375 54.828125 13.0625 64.515625 
Q 19.53125 74.21875 31.78125 74.21875 
z
" id="DejaVuSans-48"/>
       </defs>
       <use xlink:href="#DejaVuSans-48"/>
      </g>
     </g>
    </g>
    <g id="ytick_2">
     <g id="line2d_7">
      <g>
       <use style="stroke:#000000;stroke-width:0.8;" x="26.925" xlink:href="#m9ff9696b1d" y="210.174452"/>
      </g>
     </g>
     <g id="text_7">
      <!-- 5 -->
      <g transform="translate(13.5625 213.97367)scale(0.1 -0.1)">
       <defs>
        <path d="M 10.796875 72.90625 
L 49.515625 72.90625 
L 49.515625 64.59375 
L 19.828125 64.59375 
L 19.828125 46.734375 
Q 21.96875 47.46875 24.109375 47.828125 
Q 26.265625 48.1875 28.421875 48.1875 
Q 40.625 48.1875 47.75 41.5 
Q 54.890625 34.8125 54.890625 23.390625 
Q 54.890625 11.625 47.5625 5.09375 
Q 40.234375 -1.421875 26.90625 -1.421875 
Q 22.3125 -1.421875 17.546875 -0.640625 
Q 12.796875 0.140625 7.71875 1.703125 
L 7.71875 11.625 
Q 12.109375 9.234375 16.796875 8.0625 
Q 21.484375 6.890625 26.703125 6.890625 
Q 35.15625 6.890625 40.078125 11.328125 
Q 45.015625 15.765625 45.015625 23.390625 
Q 45.015625 31 40.078125 35.4375 
Q 35.15625 39.890625 26.703125 39.890625 
Q 22.75 39.890625 18.8125 39.015625 
Q 14.890625 38.140625 10.796875 36.28125 
z
" id="DejaVuSans-53"/>
       </defs>
       <use xlink:href="#DejaVuSans-53"/>
      </g>
     </g>
    </g>
    <g id="ytick_3">
     <g id="line2d_8">
      <g>
       <use style="stroke:#000000;stroke-width:0.8;" x="26.925" xlink:href="#m9ff9696b1d" y="180.590778"/>
      </g>
     </g>
     <g id="text_8">
      <!-- 10 -->
      <g transform="translate(7.2 184.389997)scale(0.1 -0.1)">
       <defs>
        <path d="M 12.40625 8.296875 
L 28.515625 8.296875 
L 28.515625 63.921875 
L 10.984375 60.40625 
L 10.984375 69.390625 
L 28.421875 72.90625 
L 38.28125 72.90625 
L 38.28125 8.296875 
L 54.390625 8.296875 
L 54.390625 0 
L 12.40625 0 
z
" id="DejaVuSans-49"/>
       </defs>
       <use xlink:href="#DejaVuSans-49"/>
       <use x="63.623047" xlink:href="#DejaVuSans-48"/>
      </g>
     </g>
    </g>
    <g id="ytick_4">
     <g id="line2d_9">
      <g>
       <use style="stroke:#000000;stroke-width:0.8;" x="26.925" xlink:href="#m9ff9696b1d" y="151.007105"/>
      </g>
     </g>
     <g id="text_9">
      <!-- 15 -->
      <g transform="translate(7.2 154.806323)scale(0.1 -0.1)">
       <use xlink:href="#DejaVuSans-49"/>
       <use x="63.623047" xlink:href="#DejaVuSans-53"/>
      </g>
     </g>
    </g>
    <g id="ytick_5">
     <g id="line2d_10">
      <g>
       <use style="stroke:#000000;stroke-width:0.8;" x="26.925" xlink:href="#m9ff9696b1d" y="121.423431"/>
      </g>
     </g>
     <g id="text_10">
      <!-- 20 -->
      <g transform="translate(7.2 125.22265)scale(0.1 -0.1)">
       <defs>
        <path d="M 19.1875 8.296875 
L 53.609375 8.296875 
L 53.609375 0 
L 7.328125 0 
L 7.328125 8.296875 
Q 12.9375 14.109375 22.625 23.890625 
Q 32.328125 33.6875 34.8125 36.53125 
Q 39.546875 41.84375 41.421875 45.53125 
Q 43.3125 49.21875 43.3125 52.78125 
Q 43.3125 58.59375 39.234375 62.25 
Q 35.15625 65.921875 28.609375 65.921875 
Q 23.96875 65.921875 18.8125 64.3125 
Q 13.671875 62.703125 7.8125 59.421875 
L 7.8125 69.390625 
Q 13.765625 71.78125 18.9375 73 
Q 24.125 74.21875 28.421875 74.21875 
Q 39.75 74.21875 46.484375 68.546875 
Q 53.21875 62.890625 53.21875 53.421875 
Q 53.21875 48.921875 51.53125 44.890625 
Q 49.859375 40.875 45.40625 35.40625 
Q 44.1875 33.984375 37.640625 27.21875 
Q 31.109375 20.453125 19.1875 8.296875 
z
" id="DejaVuSans-50"/>
       </defs>
       <use xlink:href="#DejaVuSans-50"/>
       <use x="63.623047" xlink:href="#DejaVuSans-48"/>
      </g>
     </g>
    </g>
    <g id="ytick_6">
     <g id="line2d_11">
      <g>
       <use style="stroke:#000000;stroke-width:0.8;" x="26.925" xlink:href="#m9ff9696b1d" y="91.839758"/>
      </g>
     </g>
     <g id="text_11">
      <!-- 25 -->
      <g transform="translate(7.2 95.638976)scale(0.1 -0.1)">
       <use xlink:href="#DejaVuSans-50"/>
       <use x="63.623047" xlink:href="#DejaVuSans-53"/>
      </g>
     </g>
    </g>
    <g id="ytick_7">
     <g id="line2d_12">
      <g>
       <use style="stroke:#000000;stroke-width:0.8;" x="26.925" xlink:href="#m9ff9696b1d" y="62.256084"/>
      </g>
     </g>
     <g id="text_12">
      <!-- 30 -->
      <g transform="translate(7.2 66.055303)scale(0.1 -0.1)">
       <defs>
        <path d="M 40.578125 39.3125 
Q 47.65625 37.796875 51.625 33 
Q 55.609375 28.21875 55.609375 21.1875 
Q 55.609375 10.40625 48.1875 4.484375 
Q 40.765625 -1.421875 27.09375 -1.421875 
Q 22.515625 -1.421875 17.65625 -0.515625 
Q 12.796875 0.390625 7.625 2.203125 
L 7.625 11.71875 
Q 11.71875 9.328125 16.59375 8.109375 
Q 21.484375 6.890625 26.8125 6.890625 
Q 36.078125 6.890625 40.9375 10.546875 
Q 45.796875 14.203125 45.796875 21.1875 
Q 45.796875 27.640625 41.28125 31.265625 
Q 36.765625 34.90625 28.71875 34.90625 
L 20.21875 34.90625 
L 20.21875 43.015625 
L 29.109375 43.015625 
Q 36.375 43.015625 40.234375 45.921875 
Q 44.09375 48.828125 44.09375 54.296875 
Q 44.09375 59.90625 40.109375 62.90625 
Q 36.140625 65.921875 28.71875 65.921875 
Q 24.65625 65.921875 20.015625 65.03125 
Q 15.375 64.15625 9.8125 62.3125 
L 9.8125 71.09375 
Q 15.4375 72.65625 20.34375 73.4375 
Q 25.25 74.21875 29.59375 74.21875 
Q 40.828125 74.21875 47.359375 69.109375 
Q 53.90625 64.015625 53.90625 55.328125 
Q 53.90625 49.265625 50.4375 45.09375 
Q 46.96875 40.921875 40.578125 39.3125 
z
" id="DejaVuSans-51"/>
       </defs>
       <use xlink:href="#DejaVuSans-51"/>
       <use x="63.623047" xlink:href="#DejaVuSans-48"/>
      </g>
     </g>
    </g>
    <g id="ytick_8">
     <g id="line2d_13">
      <g>
       <use style="stroke:#000000;stroke-width:0.8;" x="26.925" xlink:href="#m9ff9696b1d" y="32.672411"/>
      </g>
     </g>
     <g id="text_13">
      <!-- 35 -->
      <g transform="translate(7.2 36.471629)scale(0.1 -0.1)">
       <use xlink:href="#DejaVuSans-51"/>
       <use x="63.623047" xlink:href="#DejaVuSans-53"/>
      </g>
     </g>
    </g>
   </g>
   <g id="patch_8">
    <path d="M 26.925 239.758125 
L 26.925 22.318125 
" style="fill:none;stroke:#000000;stroke-linecap:square;stroke-linejoin:miter;stroke-width:0.8;"/>
   </g>
   <g id="patch_9">
    <path d="M 361.725 239.758125 
L 361.725 22.318125 
" style="fill:none;stroke:#000000;stroke-linecap:square;stroke-linejoin:miter;stroke-width:0.8;"/>
   </g>
   <g id="patch_10">
    <path d="M 26.925 239.758125 
L 361.725 239.758125 
" style="fill:none;stroke:#000000;stroke-linecap:square;stroke-linejoin:miter;stroke-width:0.8;"/>
   </g>
   <g id="patch_11">
    <path d="M 26.925 22.318125 
L 361.725 22.318125 
" style="fill:none;stroke:#000000;stroke-linecap:square;stroke-linejoin:miter;stroke-width:0.8;"/>
   </g>
   <g id="text_14">
    <!-- Bar Chart -->
    <g transform="translate(165.670313 16.318125)scale(0.12 -0.12)">
     <defs>
      <path d="M 19.671875 34.8125 
L 19.671875 8.109375 
L 35.5 8.109375 
Q 43.453125 8.109375 47.28125 11.40625 
Q 51.125 14.703125 51.125 21.484375 
Q 51.125 28.328125 47.28125 31.5625 
Q 43.453125 34.8125 35.5 34.8125 
z
M 19.671875 64.796875 
L 19.671875 42.828125 
L 34.28125 42.828125 
Q 41.5 42.828125 45.03125 45.53125 
Q 48.578125 48.25 48.578125 53.8125 
Q 48.578125 59.328125 45.03125 62.0625 
Q 41.5 64.796875 34.28125 64.796875 
z
M 9.8125 72.90625 
L 35.015625 72.90625 
Q 46.296875 72.90625 52.390625 68.21875 
Q 58.5 63.53125 58.5 54.890625 
Q 58.5 48.1875 55.375 44.234375 
Q 52.25 40.28125 46.1875 39.3125 
Q 53.46875 37.75 57.5 32.78125 
Q 61.53125 27.828125 61.53125 20.40625 
Q 61.53125 10.640625 54.890625 5.3125 
Q 48.25 0 35.984375 0 
L 9.8125 0 
z
" id="DejaVuSans-66"/>
      <path d="M 41.109375 46.296875 
Q 39.59375 47.171875 37.8125 47.578125 
Q 36.03125 48 33.890625 48 
Q 26.265625 48 22.1875 43.046875 
Q 18.109375 38.09375 18.109375 28.8125 
L 18.109375 0 
L 9.078125 0 
L 9.078125 54.6875 
L 18.109375 54.6875 
L 18.109375 46.1875 
Q 20.953125 51.171875 25.484375 53.578125 
Q 30.03125 56 36.53125 56 
Q 37.453125 56 38.578125 55.875 
Q 39.703125 55.765625 41.0625 55.515625 
z
" id="DejaVuSans-114"/>
      <path id="DejaVuSans-32"/>
     </defs>
     <use xlink:href="#DejaVuSans-66"/>
     <use x="68.603516" xlink:href="#DejaVuSans-97"/>
     <use x="129.882812" xlink:href="#DejaVuSans-114"/>
     <use x="170.996094" xlink:href="#DejaVuSans-32"/>
     <use x="202.783203" xlink:href="#DejaVuSans-67"/>
     <use x="272.607422" xlink:href="#DejaVuSans-104"/>
     <use x="335.986328" xlink:href="#DejaVuSans-97"/>
     <use x="397.265625" xlink:href="#DejaVuSans-114"/>
     <use x="438.378906" xlink:href="#DejaVuSans-116"/>
    </g>
   </g>
  </g>
 </g>
 <defs>
  <clipPath id="p410ece708c">
   <rect height="217.44" width="334.8" x="26.925" y="22.318125"/>
  </clipPath>
 </defs>
 <defs>
  <pattern height="72" id="h735349cf2d" patternUnits="userSpaceOnUse" width="72" x="0" y="0">
   <rect fill="#bf00bf" height="73" width="73" x="0" y="0"/>
   <path d="M 0 76.2 
C 1.113853 76.2 2.182235 75.757462 2.969848 74.969848 
C 3.757462 74.182235 4.2 73.113853 4.2 72 
C 4.2 70.886147 3.757462 69.817765 2.969848 69.030152 
C 2.182235 68.242538 1.113853 67.8 0 67.8 
C -1.113853 67.8 -2.182235 68.242538 -2.969848 69.030152 
C -3.757462 69.817765 -4.2 70.886147 -4.2 72 
C -4.2 73.113853 -3.757462 74.182235 -2.969848 74.969848 
C -2.182235 75.757462 -1.113853 76.2 0 76.2 
z
M 0 75.78 
C 0 75.78 -1.002468 75.78 -1.964012 75.381715 
C -2.672864 74.672864 -3.381715 73.964012 -3.78 73.002468 
C -3.78 72 -3.78 70.997532 -3.381715 70.035988 
C -2.672864 69.327136 -1.964012 68.618285 -1.002468 68.22 
C 0 68.22 1.002468 68.22 1.964012 68.618285 
C 2.672864 69.327136 3.381715 70.035988 3.78 70.997532 
C 3.78 72 3.78 73.002468 3.381715 73.964012 
C 2.672864 74.672864 1.964012 75.381715 1.002468 75.78 
z
M 12 76.2 
C 13.113853 76.2 14.182235 75.757462 14.969848 74.969848 
C 15.757462 74.182235 16.2 73.113853 16.2 72 
C 16.2 70.886147 15.757462 69.817765 14.969848 69.030152 
C 14.182235 68.242538 13.113853 67.8 12 67.8 
C 10.886147 67.8 9.817765 68.242538 9.030152 69.030152 
C 8.242538 69.817765 7.8 70.886147 7.8 72 
C 7.8 73.113853 8.242538 74.182235 9.030152 74.969848 
C 9.817765 75.757462 10.886147 76.2 12 76.2 
z
M 12 75.78 
C 12 75.78 10.997532 75.78 10.035988 75.381715 
C 9.327136 74.672864 8.618285 73.964012 8.22 73.002468 
C 8.22 72 8.22 70.997532 8.618285 70.035988 
C 9.327136 69.327136 10.035988 68.618285 10.997532 68.22 
C 12 68.22 13.002468 68.22 13.964012 68.618285 
C 14.672864 69.327136 15.381715 70.035988 15.78 70.997532 
C 15.78 72 15.78 73.002468 15.381715 73.964012 
C 14.672864 74.672864 13.964012 75.381715 13.002468 75.78 
z
M 24 76.2 
C 25.113853 76.2 26.182235 75.757462 26.969848 74.969848 
C 27.757462 74.182235 28.2 73.113853 28.2 72 
C 28.2 70.886147 27.757462 69.817765 26.969848 69.030152 
C 26.182235 68.242538 25.113853 67.8 24 67.8 
C 22.886147 67.8 21.817765 68.242538 21.030152 69.030152 
C 20.242538 69.817765 19.8 70.886147 19.8 72 
C 19.8 73.113853 20.242538 74.182235 21.030152 74.969848 
C 21.817765 75.757462 22.886147 76.2 24 76.2 
z
M 24 75.78 
C 24 75.78 22.997532 75.78 22.035988 75.381715 
C 21.327136 74.672864 20.618285 73.964012 20.22 73.002468 
C 20.22 72 20.22 70.997532 20.618285 70.035988 
C 21.327136 69.327136 22.035988 68.618285 22.997532 68.22 
C 24 68.22 25.002468 68.22 25.964012 68.618285 
C 26.672864 69.327136 27.381715 70.035988 27.78 70.997532 
C 27.78 72 27.78 73.002468 27.381715 73.964012 
C 26.672864 74.672864 25.964012 75.381715 25.002468 75.78 
z
M 36 76.2 
C 37.113853 76.2 38.182235 75.757462 38.969848 74.969848 
C 39.757462 74.182235 40.2 73.113853 40.2 72 
C 40.2 70.886147 39.757462 69.817765 38.969848 69.030152 
C 38.182235 68.242538 37.113853 67.8 36 67.8 
C 34.886147 67.8 33.817765 68.242538 33.030152 69.030152 
C 32.242538 69.817765 31.8 70.886147 31.8 72 
C 31.8 73.113853 32.242538 74.182235 33.030152 74.969848 
C 33.817765 75.757462 34.886147 76.2 36 76.2 
z
M 36 75.78 
C 36 75.78 34.997532 75.78 34.035988 75.381715 
C 33.327136 74.672864 32.618285 73.964012 32.22 73.002468 
C 32.22 72 32.22 70.997532 32.618285 70.035988 
C 33.327136 69.327136 34.035988 68.618285 34.997532 68.22 
C 36 68.22 37.002468 68.22 37.964012 68.618285 
C 38.672864 69.327136 39.381715 70.035988 39.78 70.997532 
C 39.78 72 39.78 73.002468 39.381715 73.964012 
C 38.672864 74.672864 37.964012 75.381715 37.002468 75.78 
z
M 48 76.2 
C 49.113853 76.2 50.182235 75.757462 50.969848 74.969848 
C 51.757462 74.182235 52.2 73.113853 52.2 72 
C 52.2 70.886147 51.757462 69.817765 50.969848 69.030152 
C 50.182235 68.242538 49.113853 67.8 48 67.8 
C 46.886147 67.8 45.817765 68.242538 45.030152 69.030152 
C 44.242538 69.817765 43.8 70.886147 43.8 72 
C 43.8 73.113853 44.242538 74.182235 45.030152 74.969848 
C 45.817765 75.757462 46.886147 76.2 48 76.2 
z
M 48 75.78 
C 48 75.78 46.997532 75.78 46.035988 75.381715 
C 45.327136 74.672864 44.618285 73.964012 44.22 73.002468 
C 44.22 72 44.22 70.997532 44.618285 70.035988 
C 45.327136 69.327136 46.035988 68.618285 46.997532 68.22 
C 48 68.22 49.002468 68.22 49.964012 68.618285 
C 50.672864 69.327136 51.381715 70.035988 51.78 70.997532 
C 51.78 72 51.78 73.002468 51.381715 73.964012 
C 50.672864 74.672864 49.964012 75.381715 49.002468 75.78 
z
M 60 76.2 
C 61.113853 76.2 62.182235 75.757462 62.969848 74.969848 
C 63.757462 74.182235 64.2 73.113853 64.2 72 
C 64.2 70.886147 63.757462 69.817765 62.969848 69.030152 
C 62.182235 68.242538 61.113853 67.8 60 67.8 
C 58.886147 67.8 57.817765 68.242538 57.030152 69.030152 
C 56.242538 69.817765 55.8 70.886147 55.8 72 
C 55.8 73.113853 56.242538 74.182235 57.030152 74.969848 
C 57.817765 75.757462 58.886147 76.2 60 76.2 
z
M 60 75.78 
C 60 75.78 58.997532 75.78 58.035988 75.381715 
C 57.327136 74.672864 56.618285 73.964012 56.22 73.002468 
C 56.22 72 56.22 70.997532 56.618285 70.035988 
C 57.327136 69.327136 58.035988 68.618285 58.997532 68.22 
C 60 68.22 61.002468 68.22 61.964012 68.618285 
C 62.672864 69.327136 63.381715 70.035988 63.78 70.997532 
C 63.78 72 63.78 73.002468 63.381715 73.964012 
C 62.672864 74.672864 61.964012 75.381715 61.002468 75.78 
z
M 72 76.2 
C 73.113853 76.2 74.182235 75.757462 74.969848 74.969848 
C 75.757462 74.182235 76.2 73.113853 76.2 72 
C 76.2 70.886147 75.757462 69.817765 74.969848 69.030152 
C 74.182235 68.242538 73.113853 67.8 72 67.8 
C 70.886147 67.8 69.817765 68.242538 69.030152 69.030152 
C 68.242538 69.817765 67.8 70.886147 67.8 72 
C 67.8 73.113853 68.242538 74.182235 69.030152 74.969848 
C 69.817765 75.757462 70.886147 76.2 72 76.2 
z
M 72 75.78 
C 72 75.78 70.997532 75.78 70.035988 75.381715 
C 69.327136 74.672864 68.618285 73.964012 68.22 73.002468 
C 68.22 72 68.22 70.997532 68.618285 70.035988 
C 69.327136 69.327136 70.035988 68.618285 70.997532 68.22 
C 72 68.22 73.002468 68.22 73.964012 68.618285 
C 74.672864 69.327136 75.381715 70.035988 75.78 70.997532 
C 75.78 72 75.78 73.002468 75.381715 73.964012 
C 74.672864 74.672864 73.964012 75.381715 73.002468 75.78 
z
M 6 64.2 
C 7.113853 64.2 8.182235 63.757462 8.969848 62.969848 
C 9.757462 62.182235 10.2 61.113853 10.2 60 
C 10.2 58.886147 9.757462 57.817765 8.969848 57.030152 
C 8.182235 56.242538 7.113853 55.8 6 55.8 
C 4.886147 55.8 3.817765 56.242538 3.030152 57.030152 
C 2.242538 57.817765 1.8 58.886147 1.8 60 
C 1.8 61.113853 2.242538 62.182235 3.030152 62.969848 
C 3.817765 63.757462 4.886147 64.2 6 64.2 
z
M 6 63.78 
C 6 63.78 4.997532 63.78 4.035988 63.381715 
C 3.327136 62.672864 2.618285 61.964012 2.22 61.002468 
C 2.22 60 2.22 58.997532 2.618285 58.035988 
C 3.327136 57.327136 4.035988 56.618285 4.997532 56.22 
C 6 56.22 7.002468 56.22 7.964012 56.618285 
C 8.672864 57.327136 9.381715 58.035988 9.78 58.997532 
C 9.78 60 9.78 61.002468 9.381715 61.964012 
C 8.672864 62.672864 7.964012 63.381715 7.002468 63.78 
z
M 18 64.2 
C 19.113853 64.2 20.182235 63.757462 20.969848 62.969848 
C 21.757462 62.182235 22.2 61.113853 22.2 60 
C 22.2 58.886147 21.757462 57.817765 20.969848 57.030152 
C 20.182235 56.242538 19.113853 55.8 18 55.8 
C 16.886147 55.8 15.817765 56.242538 15.030152 57.030152 
C 14.242538 57.817765 13.8 58.886147 13.8 60 
C 13.8 61.113853 14.242538 62.182235 15.030152 62.969848 
C 15.817765 63.757462 16.886147 64.2 18 64.2 
z
M 18 63.78 
C 18 63.78 16.997532 63.78 16.035988 63.381715 
C 15.327136 62.672864 14.618285 61.964012 14.22 61.002468 
C 14.22 60 14.22 58.997532 14.618285 58.035988 
C 15.327136 57.327136 16.035988 56.618285 16.997532 56.22 
C 18 56.22 19.002468 56.22 19.964012 56.618285 
C 20.672864 57.327136 21.381715 58.035988 21.78 58.997532 
C 21.78 60 21.78 61.002468 21.381715 61.964012 
C 20.672864 62.672864 19.964012 63.381715 19.002468 63.78 
z
M 30 64.2 
C 31.113853 64.2 32.182235 63.757462 32.969848 62.969848 
C 33.757462 62.182235 34.2 61.113853 34.2 60 
C 34.2 58.886147 33.757462 57.817765 32.969848 57.030152 
C 32.182235 56.242538 31.113853 55.8 30 55.8 
C 28.886147 55.8 27.817765 56.242538 27.030152 57.030152 
C 26.242538 57.817765 25.8 58.886147 25.8 60 
C 25.8 61.113853 26.242538 62.182235 27.030152 62.969848 
C 27.817765 63.757462 28.886147 64.2 30 64.2 
z
M 30 63.78 
C 30 63.78 28.997532 63.78 28.035988 63.381715 
C 27.327136 62.672864 26.618285 61.964012 26.22 61.002468 
C 26.22 60 26.22 58.997532 26.618285 58.035988 
C 27.327136 57.327136 28.035988 56.618285 28.997532 56.22 
C 30 56.22 31.002468 56.22 31.964012 56.618285 
C 32.672864 57.327136 33.381715 58.035988 33.78 58.997532 
C 33.78 60 33.78 61.002468 33.381715 61.964012 
C 32.672864 62.672864 31.964012 63.381715 31.002468 63.78 
z
M 42 64.2 
C 43.113853 64.2 44.182235 63.757462 44.969848 62.969848 
C 45.757462 62.182235 46.2 61.113853 46.2 60 
C 46.2 58.886147 45.757462 57.817765 44.969848 57.030152 
C 44.182235 56.242538 43.113853 55.8 42 55.8 
C 40.886147 55.8 39.817765 56.242538 39.030152 57.030152 
C 38.242538 57.817765 37.8 58.886147 37.8 60 
C 37.8 61.113853 38.242538 62.182235 39.030152 62.969848 
C 39.817765 63.757462 40.886147 64.2 42 64.2 
z
M 42 63.78 
C 42 63.78 40.997532 63.78 40.035988 63.381715 
C 39.327136 62.672864 38.618285 61.964012 38.22 61.002468 
C 38.22 60 38.22 58.997532 38.618285 58.035988 
C 39.327136 57.327136 40.035988 56.618285 40.997532 56.22 
C 42 56.22 43.002468 56.22 43.964012 56.618285 
C 44.672864 57.327136 45.381715 58.035988 45.78 58.997532 
C 45.78 60 45.78 61.002468 45.381715 61.964012 
C 44.672864 62.672864 43.964012 63.381715 43.002468 63.78 
z
M 54 64.2 
C 55.113853 64.2 56.182235 63.757462 56.969848 62.969848 
C 57.757462 62.182235 58.2 61.113853 58.2 60 
C 58.2 58.886147 57.757462 57.817765 56.969848 57.030152 
C 56.182235 56.242538 55.113853 55.8 54 55.8 
C 52.886147 55.8 51.817765 56.242538 51.030152 57.030152 
C 50.242538 57.817765 49.8 58.886147 49.8 60 
C 49.8 61.113853 50.242538 62.182235 51.030152 62.969848 
C 51.817765 63.757462 52.886147 64.2 54 64.2 
z
M 54 63.78 
C 54 63.78 52.997532 63.78 52.035988 63.381715 
C 51.327136 62.672864 50.618285 61.964012 50.22 61.002468 
C 50.22 60 50.22 58.997532 50.618285 58.035988 
C 51.327136 57.327136 52.035988 56.618285 52.997532 56.22 
C 54 56.22 55.002468 56.22 55.964012 56.618285 
C 56.672864 57.327136 57.381715 58.035988 57.78 58.997532 
C 57.78 60 57.78 61.002468 57.381715 61.964012 
C 56.672864 62.672864 55.964012 63.381715 55.002468 63.78 
z
M 66 64.2 
C 67.113853 64.2 68.182235 63.757462 68.969848 62.969848 
C 69.757462 62.182235 70.2 61.113853 70.2 60 
C 70.2 58.886147 69.757462 57.817765 68.969848 57.030152 
C 68.182235 56.242538 67.113853 55.8 66 55.8 
C 64.886147 55.8 63.817765 56.242538 63.030152 57.030152 
C 62.242538 57.817765 61.8 58.886147 61.8 60 
C 61.8 61.113853 62.242538 62.182235 63.030152 62.969848 
C 63.817765 63.757462 64.886147 64.2 66 64.2 
z
M 66 63.78 
C 66 63.78 64.997532 63.78 64.035988 63.381715 
C 63.327136 62.672864 62.618285 61.964012 62.22 61.002468 
C 62.22 60 62.22 58.997532 62.618285 58.035988 
C 63.327136 57.327136 64.035988 56.618285 64.997532 56.22 
C 66 56.22 67.002468 56.22 67.964012 56.618285 
C 68.672864 57.327136 69.381715 58.035988 69.78 58.997532 
C 69.78 60 69.78 61.002468 69.381715 61.964012 
C 68.672864 62.672864 67.964012 63.381715 67.002468 63.78 
z
M 0 52.2 
C 1.113853 52.2 2.182235 51.757462 2.969848 50.969848 
C 3.757462 50.182235 4.2 49.113853 4.2 48 
C 4.2 46.886147 3.757462 45.817765 2.969848 45.030152 
C 2.182235 44.242538 1.113853 43.8 0 43.8 
C -1.113853 43.8 -2.182235 44.242538 -2.969848 45.030152 
C -3.757462 45.817765 -4.2 46.886147 -4.2 48 
C -4.2 49.113853 -3.757462 50.182235 -2.969848 50.969848 
C -2.182235 51.757462 -1.113853 52.2 0 52.2 
z
M 0 51.78 
C 0 51.78 -1.002468 51.78 -1.964012 51.381715 
C -2.672864 50.672864 -3.381715 49.964012 -3.78 49.002468 
C -3.78 48 -3.78 46.997532 -3.381715 46.035988 
C -2.672864 45.327136 -1.964012 44.618285 -1.002468 44.22 
C 0 44.22 1.002468 44.22 1.964012 44.618285 
C 2.672864 45.327136 3.381715 46.035988 3.78 46.997532 
C 3.78 48 3.78 49.002468 3.381715 49.964012 
C 2.672864 50.672864 1.964012 51.381715 1.002468 51.78 
z
M 12 52.2 
C 13.113853 52.2 14.182235 51.757462 14.969848 50.969848 
C 15.757462 50.182235 16.2 49.113853 16.2 48 
C 16.2 46.886147 15.757462 45.817765 14.969848 45.030152 
C 14.182235 44.242538 13.113853 43.8 12 43.8 
C 10.886147 43.8 9.817765 44.242538 9.030152 45.030152 
C 8.242538 45.817765 7.8 46.886147 7.8 48 
C 7.8 49.113853 8.242538 50.182235 9.030152 50.969848 
C 9.817765 51.757462 10.886147 52.2 12 52.2 
z
M 12 51.78 
C 12 51.78 10.997532 51.78 10.035988 51.381715 
C 9.327136 50.672864 8.618285 49.964012 8.22 49.002468 
C 8.22 48 8.22 46.997532 8.618285 46.035988 
C 9.327136 45.327136 10.035988 44.618285 10.997532 44.22 
C 12 44.22 13.002468 44.22 13.964012 44.618285 
C 14.672864 45.327136 15.381715 46.035988 15.78 46.997532 
C 15.78 48 15.78 49.002468 15.381715 49.964012 
C 14.672864 50.672864 13.964012 51.381715 13.002468 51.78 
z
M 24 52.2 
C 25.113853 52.2 26.182235 51.757462 26.969848 50.969848 
C 27.757462 50.182235 28.2 49.113853 28.2 48 
C 28.2 46.886147 27.757462 45.817765 26.969848 45.030152 
C 26.182235 44.242538 25.113853 43.8 24 43.8 
C 22.886147 43.8 21.817765 44.242538 21.030152 45.030152 
C 20.242538 45.817765 19.8 46.886147 19.8 48 
C 19.8 49.113853 20.242538 50.182235 21.030152 50.969848 
C 21.817765 51.757462 22.886147 52.2 24 52.2 
z
M 24 51.78 
C 24 51.78 22.997532 51.78 22.035988 51.381715 
C 21.327136 50.672864 20.618285 49.964012 20.22 49.002468 
C 20.22 48 20.22 46.997532 20.618285 46.035988 
C 21.327136 45.327136 22.035988 44.618285 22.997532 44.22 
C 24 44.22 25.002468 44.22 25.964012 44.618285 
C 26.672864 45.327136 27.381715 46.035988 27.78 46.997532 
C 27.78 48 27.78 49.002468 27.381715 49.964012 
C 26.672864 50.672864 25.964012 51.381715 25.002468 51.78 
z
M 36 52.2 
C 37.113853 52.2 38.182235 51.757462 38.969848 50.969848 
C 39.757462 50.182235 40.2 49.113853 40.2 48 
C 40.2 46.886147 39.757462 45.817765 38.969848 45.030152 
C 38.182235 44.242538 37.113853 43.8 36 43.8 
C 34.886147 43.8 33.817765 44.242538 33.030152 45.030152 
C 32.242538 45.817765 31.8 46.886147 31.8 48 
C 31.8 49.113853 32.242538 50.182235 33.030152 50.969848 
C 33.817765 51.757462 34.886147 52.2 36 52.2 
z
M 36 51.78 
C 36 51.78 34.997532 51.78 34.035988 51.381715 
C 33.327136 50.672864 32.618285 49.964012 32.22 49.002468 
C 32.22 48 32.22 46.997532 32.618285 46.035988 
C 33.327136 45.327136 34.035988 44.618285 34.997532 44.22 
C 36 44.22 37.002468 44.22 37.964012 44.618285 
C 38.672864 45.327136 39.381715 46.035988 39.78 46.997532 
C 39.78 48 39.78 49.002468 39.381715 49.964012 
C 38.672864 50.672864 37.964012 51.381715 37.002468 51.78 
z
M 48 52.2 
C 49.113853 52.2 50.182235 51.757462 50.969848 50.969848 
C 51.757462 50.182235 52.2 49.113853 52.2 48 
C 52.2 46.886147 51.757462 45.817765 50.969848 45.030152 
C 50.182235 44.242538 49.113853 43.8 48 43.8 
C 46.886147 43.8 45.817765 44.242538 45.030152 45.030152 
C 44.242538 45.817765 43.8 46.886147 43.8 48 
C 43.8 49.113853 44.242538 50.182235 45.030152 50.969848 
C 45.817765 51.757462 46.886147 52.2 48 52.2 
z
M 48 51.78 
C 48 51.78 46.997532 51.78 46.035988 51.381715 
C 45.327136 50.672864 44.618285 49.964012 44.22 49.002468 
C 44.22 48 44.22 46.997532 44.618285 46.035988 
C 45.327136 45.327136 46.035988 44.618285 46.997532 44.22 
C 48 44.22 49.002468 44.22 49.964012 44.618285 
C 50.672864 45.327136 51.381715 46.035988 51.78 46.997532 
C 51.78 48 51.78 49.002468 51.381715 49.964012 
C 50.672864 50.672864 49.964012 51.381715 49.002468 51.78 
z
M 60 52.2 
C 61.113853 52.2 62.182235 51.757462 62.969848 50.969848 
C 63.757462 50.182235 64.2 49.113853 64.2 48 
C 64.2 46.886147 63.757462 45.817765 62.969848 45.030152 
C 62.182235 44.242538 61.113853 43.8 60 43.8 
C 58.886147 43.8 57.817765 44.242538 57.030152 45.030152 
C 56.242538 45.817765 55.8 46.886147 55.8 48 
C 55.8 49.113853 56.242538 50.182235 57.030152 50.969848 
C 57.817765 51.757462 58.886147 52.2 60 52.2 
z
M 60 51.78 
C 60 51.78 58.997532 51.78 58.035988 51.381715 
C 57.327136 50.672864 56.618285 49.964012 56.22 49.002468 
C 56.22 48 56.22 46.997532 56.618285 46.035988 
C 57.327136 45.327136 58.035988 44.618285 58.997532 44.22 
C 60 44.22 61.002468 44.22 61.964012 44.618285 
C 62.672864 45.327136 63.381715 46.035988 63.78 46.997532 
C 63.78 48 63.78 49.002468 63.381715 49.964012 
C 62.672864 50.672864 61.964012 51.381715 61.002468 51.78 
z
M 72 52.2 
C 73.113853 52.2 74.182235 51.757462 74.969848 50.969848 
C 75.757462 50.182235 76.2 49.113853 76.2 48 
C 76.2 46.886147 75.757462 45.817765 74.969848 45.030152 
C 74.182235 44.242538 73.113853 43.8 72 43.8 
C 70.886147 43.8 69.817765 44.242538 69.030152 45.030152 
C 68.242538 45.817765 67.8 46.886147 67.8 48 
C 67.8 49.113853 68.242538 50.182235 69.030152 50.969848 
C 69.817765 51.757462 70.886147 52.2 72 52.2 
z
M 72 51.78 
C 72 51.78 70.997532 51.78 70.035988 51.381715 
C 69.327136 50.672864 68.618285 49.964012 68.22 49.002468 
C 68.22 48 68.22 46.997532 68.618285 46.035988 
C 69.327136 45.327136 70.035988 44.618285 70.997532 44.22 
C 72 44.22 73.002468 44.22 73.964012 44.618285 
C 74.672864 45.327136 75.381715 46.035988 75.78 46.997532 
C 75.78 48 75.78 49.002468 75.381715 49.964012 
C 74.672864 50.672864 73.964012 51.381715 73.002468 51.78 
z
M 6 40.2 
C 7.113853 40.2 8.182235 39.757462 8.969848 38.969848 
C 9.757462 38.182235 10.2 37.113853 10.2 36 
C 10.2 34.886147 9.757462 33.817765 8.969848 33.030152 
C 8.182235 32.242538 7.113853 31.8 6 31.8 
C 4.886147 31.8 3.817765 32.242538 3.030152 33.030152 
C 2.242538 33.817765 1.8 34.886147 1.8 36 
C 1.8 37.113853 2.242538 38.182235 3.030152 38.969848 
C 3.817765 39.757462 4.886147 40.2 6 40.2 
z
M 6 39.78 
C 6 39.78 4.997532 39.78 4.035988 39.381715 
C 3.327136 38.672864 2.618285 37.964012 2.22 37.002468 
C 2.22 36 2.22 34.997532 2.618285 34.035988 
C 3.327136 33.327136 4.035988 32.618285 4.997532 32.22 
C 6 32.22 7.002468 32.22 7.964012 32.618285 
C 8.672864 33.327136 9.381715 34.035988 9.78 34.997532 
C 9.78 36 9.78 37.002468 9.381715 37.964012 
C 8.672864 38.672864 7.964012 39.381715 7.002468 39.78 
z
M 18 40.2 
C 19.113853 40.2 20.182235 39.757462 20.969848 38.969848 
C 21.757462 38.182235 22.2 37.113853 22.2 36 
C 22.2 34.886147 21.757462 33.817765 20.969848 33.030152 
C 20.182235 32.242538 19.113853 31.8 18 31.8 
C 16.886147 31.8 15.817765 32.242538 15.030152 33.030152 
C 14.242538 33.817765 13.8 34.886147 13.8 36 
C 13.8 37.113853 14.242538 38.182235 15.030152 38.969848 
C 15.817765 39.757462 16.886147 40.2 18 40.2 
z
M 18 39.78 
C 18 39.78 16.997532 39.78 16.035988 39.381715 
C 15.327136 38.672864 14.618285 37.964012 14.22 37.002468 
C 14.22 36 14.22 34.997532 14.618285 34.035988 
C 15.327136 33.327136 16.035988 32.618285 16.997532 32.22 
C 18 32.22 19.002468 32.22 19.964012 32.618285 
C 20.672864 33.327136 21.381715 34.035988 21.78 34.997532 
C 21.78 36 21.78 37.002468 21.381715 37.964012 
C 20.672864 38.672864 19.964012 39.381715 19.002468 39.78 
z
M 30 40.2 
C 31.113853 40.2 32.182235 39.757462 32.969848 38.969848 
C 33.757462 38.182235 34.2 37.113853 34.2 36 
C 34.2 34.886147 33.757462 33.817765 32.969848 33.030152 
C 32.182235 32.242538 31.113853 31.8 30 31.8 
C 28.886147 31.8 27.817765 32.242538 27.030152 33.030152 
C 26.242538 33.817765 25.8 34.886147 25.8 36 
C 25.8 37.113853 26.242538 38.182235 27.030152 38.969848 
C 27.817765 39.757462 28.886147 40.2 30 40.2 
z
M 30 39.78 
C 30 39.78 28.997532 39.78 28.035988 39.381715 
C 27.327136 38.672864 26.618285 37.964012 26.22 37.002468 
C 26.22 36 26.22 34.997532 26.618285 34.035988 
C 27.327136 33.327136 28.035988 32.618285 28.997532 32.22 
C 30 32.22 31.002468 32.22 31.964012 32.618285 
C 32.672864 33.327136 33.381715 34.035988 33.78 34.997532 
C 33.78 36 33.78 37.002468 33.381715 37.964012 
C 32.672864 38.672864 31.964012 39.381715 31.002468 39.78 
z
M 42 40.2 
C 43.113853 40.2 44.182235 39.757462 44.969848 38.969848 
C 45.757462 38.182235 46.2 37.113853 46.2 36 
C 46.2 34.886147 45.757462 33.817765 44.969848 33.030152 
C 44.182235 32.242538 43.113853 31.8 42 31.8 
C 40.886147 31.8 39.817765 32.242538 39.030152 33.030152 
C 38.242538 33.817765 37.8 34.886147 37.8 36 
C 37.8 37.113853 38.242538 38.182235 39.030152 38.969848 
C 39.817765 39.757462 40.886147 40.2 42 40.2 
z
M 42 39.78 
C 42 39.78 40.997532 39.78 40.035988 39.381715 
C 39.327136 38.672864 38.618285 37.964012 38.22 37.002468 
C 38.22 36 38.22 34.997532 38.618285 34.035988 
C 39.327136 33.327136 40.035988 32.618285 40.997532 32.22 
C 42 32.22 43.002468 32.22 43.964012 32.618285 
C 44.672864 33.327136 45.381715 34.035988 45.78 34.997532 
C 45.78 36 45.78 37.002468 45.381715 37.964012 
C 44.672864 38.672864 43.964012 39.381715 43.002468 39.78 
z
M 54 40.2 
C 55.113853 40.2 56.182235 39.757462 56.969848 38.969848 
C 57.757462 38.182235 58.2 37.113853 58.2 36 
C 58.2 34.886147 57.757462 33.817765 56.969848 33.030152 
C 56.182235 32.242538 55.113853 31.8 54 31.8 
C 52.886147 31.8 51.817765 32.242538 51.030152 33.030152 
C 50.242538 33.817765 49.8 34.886147 49.8 36 
C 49.8 37.113853 50.242538 38.182235 51.030152 38.969848 
C 51.817765 39.757462 52.886147 40.2 54 40.2 
z
M 54 39.78 
C 54 39.78 52.997532 39.78 52.035988 39.381715 
C 51.327136 38.672864 50.618285 37.964012 50.22 37.002468 
C 50.22 36 50.22 34.997532 50.618285 34.035988 
C 51.327136 33.327136 52.035988 32.618285 52.997532 32.22 
C 54 32.22 55.002468 32.22 55.964012 32.618285 
C 56.672864 33.327136 57.381715 34.035988 57.78 34.997532 
C 57.78 36 57.78 37.002468 57.381715 37.964012 
C 56.672864 38.672864 55.964012 39.381715 55.002468 39.78 
z
M 66 40.2 
C 67.113853 40.2 68.182235 39.757462 68.969848 38.969848 
C 69.757462 38.182235 70.2 37.113853 70.2 36 
C 70.2 34.886147 69.757462 33.817765 68.969848 33.030152 
C 68.182235 32.242538 67.113853 31.8 66 31.8 
C 64.886147 31.8 63.817765 32.242538 63.030152 33.030152 
C 62.242538 33.817765 61.8 34.886147 61.8 36 
C 61.8 37.113853 62.242538 38.182235 63.030152 38.969848 
C 63.817765 39.757462 64.886147 40.2 66 40.2 
z
M 66 39.78 
C 66 39.78 64.997532 39.78 64.035988 39.381715 
C 63.327136 38.672864 62.618285 37.964012 62.22 37.002468 
C 62.22 36 62.22 34.997532 62.618285 34.035988 
C 63.327136 33.327136 64.035988 32.618285 64.997532 32.22 
C 66 32.22 67.002468 32.22 67.964012 32.618285 
C 68.672864 33.327136 69.381715 34.035988 69.78 34.997532 
C 69.78 36 69.78 37.002468 69.381715 37.964012 
C 68.672864 38.672864 67.964012 39.381715 67.002468 39.78 
z
M 0 28.2 
C 1.113853 28.2 2.182235 27.757462 2.969848 26.969848 
C 3.757462 26.182235 4.2 25.113853 4.2 24 
C 4.2 22.886147 3.757462 21.817765 2.969848 21.030152 
C 2.182235 20.242538 1.113853 19.8 0 19.8 
C -1.113853 19.8 -2.182235 20.242538 -2.969848 21.030152 
C -3.757462 21.817765 -4.2 22.886147 -4.2 24 
C -4.2 25.113853 -3.757462 26.182235 -2.969848 26.969848 
C -2.182235 27.757462 -1.113853 28.2 0 28.2 
z
M 0 27.78 
C 0 27.78 -1.002468 27.78 -1.964012 27.381715 
C -2.672864 26.672864 -3.381715 25.964012 -3.78 25.002468 
C -3.78 24 -3.78 22.997532 -3.381715 22.035988 
C -2.672864 21.327136 -1.964012 20.618285 -1.002468 20.22 
C 0 20.22 1.002468 20.22 1.964012 20.618285 
C 2.672864 21.327136 3.381715 22.035988 3.78 22.997532 
C 3.78 24 3.78 25.002468 3.381715 25.964012 
C 2.672864 26.672864 1.964012 27.381715 1.002468 27.78 
z
M 12 28.2 
C 13.113853 28.2 14.182235 27.757462 14.969848 26.969848 
C 15.757462 26.182235 16.2 25.113853 16.2 24 
C 16.2 22.886147 15.757462 21.817765 14.969848 21.030152 
C 14.182235 20.242538 13.113853 19.8 12 19.8 
C 10.886147 19.8 9.817765 20.242538 9.030152 21.030152 
C 8.242538 21.817765 7.8 22.886147 7.8 24 
C 7.8 25.113853 8.242538 26.182235 9.030152 26.969848 
C 9.817765 27.757462 10.886147 28.2 12 28.2 
z
M 12 27.78 
C 12 27.78 10.997532 27.78 10.035988 27.381715 
C 9.327136 26.672864 8.618285 25.964012 8.22 25.002468 
C 8.22 24 8.22 22.997532 8.618285 22.035988 
C 9.327136 21.327136 10.035988 20.618285 10.997532 20.22 
C 12 20.22 13.002468 20.22 13.964012 20.618285 
C 14.672864 21.327136 15.381715 22.035988 15.78 22.997532 
C 15.78 24 15.78 25.002468 15.381715 25.964012 
C 14.672864 26.672864 13.964012 27.381715 13.002468 27.78 
z
M 24 28.2 
C 25.113853 28.2 26.182235 27.757462 26.969848 26.969848 
C 27.757462 26.182235 28.2 25.113853 28.2 24 
C 28.2 22.886147 27.757462 21.817765 26.969848 21.030152 
C 26.182235 20.242538 25.113853 19.8 24 19.8 
C 22.886147 19.8 21.817765 20.242538 21.030152 21.030152 
C 20.242538 21.817765 19.8 22.886147 19.8 24 
C 19.8 25.113853 20.242538 26.182235 21.030152 26.969848 
C 21.817765 27.757462 22.886147 28.2 24 28.2 
z
M 24 27.78 
C 24 27.78 22.997532 27.78 22.035988 27.381715 
C 21.327136 26.672864 20.618285 25.964012 20.22 25.002468 
C 20.22 24 20.22 22.997532 20.618285 22.035988 
C 21.327136 21.327136 22.035988 20.618285 22.997532 20.22 
C 24 20.22 25.002468 20.22 25.964012 20.618285 
C 26.672864 21.327136 27.381715 22.035988 27.78 22.997532 
C 27.78 24 27.78 25.002468 27.381715 25.964012 
C 26.672864 26.672864 25.964012 27.381715 25.002468 27.78 
z
M 36 28.2 
C 37.113853 28.2 38.182235 27.757462 38.969848 26.969848 
C 39.757462 26.182235 40.2 25.113853 40.2 24 
C 40.2 22.886147 39.757462 21.817765 38.969848 21.030152 
C 38.182235 20.242538 37.113853 19.8 36 19.8 
C 34.886147 19.8 33.817765 20.242538 33.030152 21.030152 
C 32.242538 21.817765 31.8 22.886147 31.8 24 
C 31.8 25.113853 32.242538 26.182235 33.030152 26.969848 
C 33.817765 27.757462 34.886147 28.2 36 28.2 
z
M 36 27.78 
C 36 27.78 34.997532 27.78 34.035988 27.381715 
C 33.327136 26.672864 32.618285 25.964012 32.22 25.002468 
C 32.22 24 32.22 22.997532 32.618285 22.035988 
C 33.327136 21.327136 34.035988 20.618285 34.997532 20.22 
C 36 20.22 37.002468 20.22 37.964012 20.618285 
C 38.672864 21.327136 39.381715 22.035988 39.78 22.997532 
C 39.78 24 39.78 25.002468 39.381715 25.964012 
C 38.672864 26.672864 37.964012 27.381715 37.002468 27.78 
z
M 48 28.2 
C 49.113853 28.2 50.182235 27.757462 50.969848 26.969848 
C 51.757462 26.182235 52.2 25.113853 52.2 24 
C 52.2 22.886147 51.757462 21.817765 50.969848 21.030152 
C 50.182235 20.242538 49.113853 19.8 48 19.8 
C 46.886147 19.8 45.817765 20.242538 45.030152 21.030152 
C 44.242538 21.817765 43.8 22.886147 43.8 24 
C 43.8 25.113853 44.242538 26.182235 45.030152 26.969848 
C 45.817765 27.757462 46.886147 28.2 48 28.2 
z
M 48 27.78 
C 48 27.78 46.997532 27.78 46.035988 27.381715 
C 45.327136 26.672864 44.618285 25.964012 44.22 25.002468 
C 44.22 24 44.22 22.997532 44.618285 22.035988 
C 45.327136 21.327136 46.035988 20.618285 46.997532 20.22 
C 48 20.22 49.002468 20.22 49.964012 20.618285 
C 50.672864 21.327136 51.381715 22.035988 51.78 22.997532 
C 51.78 24 51.78 25.002468 51.381715 25.964012 
C 50.672864 26.672864 49.964012 27.381715 49.002468 27.78 
z
M 60 28.2 
C 61.113853 28.2 62.182235 27.757462 62.969848 26.969848 
C 63.757462 26.182235 64.2 25.113853 64.2 24 
C 64.2 22.886147 63.757462 21.817765 62.969848 21.030152 
C 62.182235 20.242538 61.113853 19.8 60 19.8 
C 58.886147 19.8 57.817765 20.242538 57.030152 21.030152 
C 56.242538 21.817765 55.8 22.886147 55.8 24 
C 55.8 25.113853 56.242538 26.182235 57.030152 26.969848 
C 57.817765 27.757462 58.886147 28.2 60 28.2 
z
M 60 27.78 
C 60 27.78 58.997532 27.78 58.035988 27.381715 
C 57.327136 26.672864 56.618285 25.964012 56.22 25.002468 
C 56.22 24 56.22 22.997532 56.618285 22.035988 
C 57.327136 21.327136 58.035988 20.618285 58.997532 20.22 
C 60 20.22 61.002468 20.22 61.964012 20.618285 
C 62.672864 21.327136 63.381715 22.035988 63.78 22.997532 
C 63.78 24 63.78 25.002468 63.381715 25.964012 
C 62.672864 26.672864 61.964012 27.381715 61.002468 27.78 
z
M 72 28.2 
C 73.113853 28.2 74.182235 27.757462 74.969848 26.969848 
C 75.757462 26.182235 76.2 25.113853 76.2 24 
C 76.2 22.886147 75.757462 21.817765 74.969848 21.030152 
C 74.182235 20.242538 73.113853 19.8 72 19.8 
C 70.886147 19.8 69.817765 20.242538 69.030152 21.030152 
C 68.242538 21.817765 67.8 22.886147 67.8 24 
C 67.8 25.113853 68.242538 26.182235 69.030152 26.969848 
C 69.817765 27.757462 70.886147 28.2 72 28.2 
z
M 72 27.78 
C 72 27.78 70.997532 27.78 70.035988 27.381715 
C 69.327136 26.672864 68.618285 25.964012 68.22 25.002468 
C 68.22 24 68.22 22.997532 68.618285 22.035988 
C 69.327136 21.327136 70.035988 20.618285 70.997532 20.22 
C 72 20.22 73.002468 20.22 73.964012 20.618285 
C 74.672864 21.327136 75.381715 22.035988 75.78 22.997532 
C 75.78 24 75.78 25.002468 75.381715 25.964012 
C 74.672864 26.672864 73.964012 27.381715 73.002468 27.78 
z
M 6 16.2 
C 7.113853 16.2 8.182235 15.757462 8.969848 14.969848 
C 9.757462 14.182235 10.2 13.113853 10.2 12 
C 10.2 10.886147 9.757462 9.817765 8.969848 9.030152 
C 8.182235 8.242538 7.113853 7.8 6 7.8 
C 4.886147 7.8 3.817765 8.242538 3.030152 9.030152 
C 2.242538 9.817765 1.8 10.886147 1.8 12 
C 1.8 13.113853 2.242538 14.182235 3.030152 14.969848 
C 3.817765 15.757462 4.886147 16.2 6 16.2 
z
M 6 15.78 
C 6 15.78 4.997532 15.78 4.035988 15.381715 
C 3.327136 14.672864 2.618285 13.964012 2.22 13.002468 
C 2.22 12 2.22 10.997532 2.618285 10.035988 
C 3.327136 9.327136 4.035988 8.618285 4.997532 8.22 
C 6 8.22 7.002468 8.22 7.964012 8.618285 
C 8.672864 9.327136 9.381715 10.035988 9.78 10.997532 
C 9.78 12 9.78 13.002468 9.381715 13.964012 
C 8.672864 14.672864 7.964012 15.381715 7.002468 15.78 
z
M 18 16.2 
C 19.113853 16.2 20.182235 15.757462 20.969848 14.969848 
C 21.757462 14.182235 22.2 13.113853 22.2 12 
C 22.2 10.886147 21.757462 9.817765 20.969848 9.030152 
C 20.182235 8.242538 19.113853 7.8 18 7.8 
C 16.886147 7.8 15.817765 8.242538 15.030152 9.030152 
C 14.242538 9.817765 13.8 10.886147 13.8 12 
C 13.8 13.113853 14.242538 14.182235 15.030152 14.969848 
C 15.817765 15.757462 16.886147 16.2 18 16.2 
z
M 18 15.78 
C 18 15.78 16.997532 15.78 16.035988 15.381715 
C 15.327136 14.672864 14.618285 13.964012 14.22 13.002468 
C 14.22 12 14.22 10.997532 14.618285 10.035988 
C 15.327136 9.327136 16.035988 8.618285 16.997532 8.22 
C 18 8.22 19.002468 8.22 19.964012 8.618285 
C 20.672864 9.327136 21.381715 10.035988 21.78 10.997532 
C 21.78 12 21.78 13.002468 21.381715 13.964012 
C 20.672864 14.672864 19.964012 15.381715 19.002468 15.78 
z
M 30 16.2 
C 31.113853 16.2 32.182235 15.757462 32.969848 14.969848 
C 33.757462 14.182235 34.2 13.113853 34.2 12 
C 34.2 10.886147 33.757462 9.817765 32.969848 9.030152 
C 32.182235 8.242538 31.113853 7.8 30 7.8 
C 28.886147 7.8 27.817765 8.242538 27.030152 9.030152 
C 26.242538 9.817765 25.8 10.886147 25.8 12 
C 25.8 13.113853 26.242538 14.182235 27.030152 14.969848 
C 27.817765 15.757462 28.886147 16.2 30 16.2 
z
M 30 15.78 
C 30 15.78 28.997532 15.78 28.035988 15.381715 
C 27.327136 14.672864 26.618285 13.964012 26.22 13.002468 
C 26.22 12 26.22 10.997532 26.618285 10.035988 
C 27.327136 9.327136 28.035988 8.618285 28.997532 8.22 
C 30 8.22 31.002468 8.22 31.964012 8.618285 
C 32.672864 9.327136 33.381715 10.035988 33.78 10.997532 
C 33.78 12 33.78 13.002468 33.381715 13.964012 
C 32.672864 14.672864 31.964012 15.381715 31.002468 15.78 
z
M 42 16.2 
C 43.113853 16.2 44.182235 15.757462 44.969848 14.969848 
C 45.757462 14.182235 46.2 13.113853 46.2 12 
C 46.2 10.886147 45.757462 9.817765 44.969848 9.030152 
C 44.182235 8.242538 43.113853 7.8 42 7.8 
C 40.886147 7.8 39.817765 8.242538 39.030152 9.030152 
C 38.242538 9.817765 37.8 10.886147 37.8 12 
C 37.8 13.113853 38.242538 14.182235 39.030152 14.969848 
C 39.817765 15.757462 40.886147 16.2 42 16.2 
z
M 42 15.78 
C 42 15.78 40.997532 15.78 40.035988 15.381715 
C 39.327136 14.672864 38.618285 13.964012 38.22 13.002468 
C 38.22 12 38.22 10.997532 38.618285 10.035988 
C 39.327136 9.327136 40.035988 8.618285 40.997532 8.22 
C 42 8.22 43.002468 8.22 43.964012 8.618285 
C 44.672864 9.327136 45.381715 10.035988 45.78 10.997532 
C 45.78 12 45.78 13.002468 45.381715 13.964012 
C 44.672864 14.672864 43.964012 15.381715 43.002468 15.78 
z
M 54 16.2 
C 55.113853 16.2 56.182235 15.757462 56.969848 14.969848 
C 57.757462 14.182235 58.2 13.113853 58.2 12 
C 58.2 10.886147 57.757462 9.817765 56.969848 9.030152 
C 56.182235 8.242538 55.113853 7.8 54 7.8 
C 52.886147 7.8 51.817765 8.242538 51.030152 9.030152 
C 50.242538 9.817765 49.8 10.886147 49.8 12 
C 49.8 13.113853 50.242538 14.182235 51.030152 14.969848 
C 51.817765 15.757462 52.886147 16.2 54 16.2 
z
M 54 15.78 
C 54 15.78 52.997532 15.78 52.035988 15.381715 
C 51.327136 14.672864 50.618285 13.964012 50.22 13.002468 
C 50.22 12 50.22 10.997532 50.618285 10.035988 
C 51.327136 9.327136 52.035988 8.618285 52.997532 8.22 
C 54 8.22 55.002468 8.22 55.964012 8.618285 
C 56.672864 9.327136 57.381715 10.035988 57.78 10.997532 
C 57.78 12 57.78 13.002468 57.381715 13.964012 
C 56.672864 14.672864 55.964012 15.381715 55.002468 15.78 
z
M 66 16.2 
C 67.113853 16.2 68.182235 15.757462 68.969848 14.969848 
C 69.757462 14.182235 70.2 13.113853 70.2 12 
C 70.2 10.886147 69.757462 9.817765 68.969848 9.030152 
C 68.182235 8.242538 67.113853 7.8 66 7.8 
C 64.886147 7.8 63.817765 8.242538 63.030152 9.030152 
C 62.242538 9.817765 61.8 10.886147 61.8 12 
C 61.8 13.113853 62.242538 14.182235 63.030152 14.969848 
C 63.817765 15.757462 64.886147 16.2 66 16.2 
z
M 66 15.78 
C 66 15.78 64.997532 15.78 64.035988 15.381715 
C 63.327136 14.672864 62.618285 13.964012 62.22 13.002468 
C 62.22 12 62.22 10.997532 62.618285 10.035988 
C 63.327136 9.327136 64.035988 8.618285 64.997532 8.22 
C 66 8.22 67.002468 8.22 67.964012 8.618285 
C 68.672864 9.327136 69.381715 10.035988 69.78 10.997532 
C 69.78 12 69.78 13.002468 69.381715 13.964012 
C 68.672864 14.672864 67.964012 15.381715 67.002468 15.78 
z
M 0 4.2 
C 1.113853 4.2 2.182235 3.757462 2.969848 2.969848 
C 3.757462 2.182235 4.2 1.113853 4.2 0 
C 4.2 -1.113853 3.757462 -2.182235 2.969848 -2.969848 
C 2.182235 -3.757462 1.113853 -4.2 0 -4.2 
C -1.113853 -4.2 -2.182235 -3.757462 -2.969848 -2.969848 
C -3.757462 -2.182235 -4.2 -1.113853 -4.2 0 
C -4.2 1.113853 -3.757462 2.182235 -2.969848 2.969848 
C -2.182235 3.757462 -1.113853 4.2 0 4.2 
z
M 0 3.78 
C 0 3.78 -1.002468 3.78 -1.964012 3.381715 
C -2.672864 2.672864 -3.381715 1.964012 -3.78 1.002468 
C -3.78 0 -3.78 -1.002468 -3.381715 -1.964012 
C -2.672864 -2.672864 -1.964012 -3.381715 -1.002468 -3.78 
C 0 -3.78 1.002468 -3.78 1.964012 -3.381715 
C 2.672864 -2.672864 3.381715 -1.964012 3.78 -1.002468 
C 3.78 0 3.78 1.002468 3.381715 1.964012 
C 2.672864 2.672864 1.964012 3.381715 1.002468 3.78 
z
M 12 4.2 
C 13.113853 4.2 14.182235 3.757462 14.969848 2.969848 
C 15.757462 2.182235 16.2 1.113853 16.2 0 
C 16.2 -1.113853 15.757462 -2.182235 14.969848 -2.969848 
C 14.182235 -3.757462 13.113853 -4.2 12 -4.2 
C 10.886147 -4.2 9.817765 -3.757462 9.030152 -2.969848 
C 8.242538 -2.182235 7.8 -1.113853 7.8 0 
C 7.8 1.113853 8.242538 2.182235 9.030152 2.969848 
C 9.817765 3.757462 10.886147 4.2 12 4.2 
z
M 12 3.78 
C 12 3.78 10.997532 3.78 10.035988 3.381715 
C 9.327136 2.672864 8.618285 1.964012 8.22 1.002468 
C 8.22 0 8.22 -1.002468 8.618285 -1.964012 
C 9.327136 -2.672864 10.035988 -3.381715 10.997532 -3.78 
C 12 -3.78 13.002468 -3.78 13.964012 -3.381715 
C 14.672864 -2.672864 15.381715 -1.964012 15.78 -1.002468 
C 15.78 0 15.78 1.002468 15.381715 1.964012 
C 14.672864 2.672864 13.964012 3.381715 13.002468 3.78 
z
M 24 4.2 
C 25.113853 4.2 26.182235 3.757462 26.969848 2.969848 
C 27.757462 2.182235 28.2 1.113853 28.2 0 
C 28.2 -1.113853 27.757462 -2.182235 26.969848 -2.969848 
C 26.182235 -3.757462 25.113853 -4.2 24 -4.2 
C 22.886147 -4.2 21.817765 -3.757462 21.030152 -2.969848 
C 20.242538 -2.182235 19.8 -1.113853 19.8 0 
C 19.8 1.113853 20.242538 2.182235 21.030152 2.969848 
C 21.817765 3.757462 22.886147 4.2 24 4.2 
z
M 24 3.78 
C 24 3.78 22.997532 3.78 22.035988 3.381715 
C 21.327136 2.672864 20.618285 1.964012 20.22 1.002468 
C 20.22 0 20.22 -1.002468 20.618285 -1.964012 
C 21.327136 -2.672864 22.035988 -3.381715 22.997532 -3.78 
C 24 -3.78 25.002468 -3.78 25.964012 -3.381715 
C 26.672864 -2.672864 27.381715 -1.964012 27.78 -1.002468 
C 27.78 0 27.78 1.002468 27.381715 1.964012 
C 26.672864 2.672864 25.964012 3.381715 25.002468 3.78 
z
M 36 4.2 
C 37.113853 4.2 38.182235 3.757462 38.969848 2.969848 
C 39.757462 2.182235 40.2 1.113853 40.2 0 
C 40.2 -1.113853 39.757462 -2.182235 38.969848 -2.969848 
C 38.182235 -3.757462 37.113853 -4.2 36 -4.2 
C 34.886147 -4.2 33.817765 -3.757462 33.030152 -2.969848 
C 32.242538 -2.182235 31.8 -1.113853 31.8 0 
C 31.8 1.113853 32.242538 2.182235 33.030152 2.969848 
C 33.817765 3.757462 34.886147 4.2 36 4.2 
z
M 36 3.78 
C 36 3.78 34.997532 3.78 34.035988 3.381715 
C 33.327136 2.672864 32.618285 1.964012 32.22 1.002468 
C 32.22 0 32.22 -1.002468 32.618285 -1.964012 
C 33.327136 -2.672864 34.035988 -3.381715 34.997532 -3.78 
C 36 -3.78 37.002468 -3.78 37.964012 -3.381715 
C 38.672864 -2.672864 39.381715 -1.964012 39.78 -1.002468 
C 39.78 0 39.78 1.002468 39.381715 1.964012 
C 38.672864 2.672864 37.964012 3.381715 37.002468 3.78 
z
M 48 4.2 
C 49.113853 4.2 50.182235 3.757462 50.969848 2.969848 
C 51.757462 2.182235 52.2 1.113853 52.2 0 
C 52.2 -1.113853 51.757462 -2.182235 50.969848 -2.969848 
C 50.182235 -3.757462 49.113853 -4.2 48 -4.2 
C 46.886147 -4.2 45.817765 -3.757462 45.030152 -2.969848 
C 44.242538 -2.182235 43.8 -1.113853 43.8 0 
C 43.8 1.113853 44.242538 2.182235 45.030152 2.969848 
C 45.817765 3.757462 46.886147 4.2 48 4.2 
z
M 48 3.78 
C 48 3.78 46.997532 3.78 46.035988 3.381715 
C 45.327136 2.672864 44.618285 1.964012 44.22 1.002468 
C 44.22 0 44.22 -1.002468 44.618285 -1.964012 
C 45.327136 -2.672864 46.035988 -3.381715 46.997532 -3.78 
C 48 -3.78 49.002468 -3.78 49.964012 -3.381715 
C 50.672864 -2.672864 51.381715 -1.964012 51.78 -1.002468 
C 51.78 0 51.78 1.002468 51.381715 1.964012 
C 50.672864 2.672864 49.964012 3.381715 49.002468 3.78 
z
M 60 4.2 
C 61.113853 4.2 62.182235 3.757462 62.969848 2.969848 
C 63.757462 2.182235 64.2 1.113853 64.2 0 
C 64.2 -1.113853 63.757462 -2.182235 62.969848 -2.969848 
C 62.182235 -3.757462 61.113853 -4.2 60 -4.2 
C 58.886147 -4.2 57.817765 -3.757462 57.030152 -2.969848 
C 56.242538 -2.182235 55.8 -1.113853 55.8 0 
C 55.8 1.113853 56.242538 2.182235 57.030152 2.969848 
C 57.817765 3.757462 58.886147 4.2 60 4.2 
z
M 60 3.78 
C 60 3.78 58.997532 3.78 58.035988 3.381715 
C 57.327136 2.672864 56.618285 1.964012 56.22 1.002468 
C 56.22 0 56.22 -1.002468 56.618285 -1.964012 
C 57.327136 -2.672864 58.035988 -3.381715 58.997532 -3.78 
C 60 -3.78 61.002468 -3.78 61.964012 -3.381715 
C 62.672864 -2.672864 63.381715 -1.964012 63.78 -1.002468 
C 63.78 0 63.78 1.002468 63.381715 1.964012 
C 62.672864 2.672864 61.964012 3.381715 61.002468 3.78 
z
M 72 4.2 
C 73.113853 4.2 74.182235 3.757462 74.969848 2.969848 
C 75.757462 2.182235 76.2 1.113853 76.2 0 
C 76.2 -1.113853 75.757462 -2.182235 74.969848 -2.969848 
C 74.182235 -3.757462 73.113853 -4.2 72 -4.2 
C 70.886147 -4.2 69.817765 -3.757462 69.030152 -2.969848 
C 68.242538 -2.182235 67.8 -1.113853 67.8 0 
C 67.8 1.113853 68.242538 2.182235 69.030152 2.969848 
C 69.817765 3.757462 70.886147 4.2 72 4.2 
z
M 72 3.78 
C 72 3.78 70.997532 3.78 70.035988 3.381715 
C 69.327136 2.672864 68.618285 1.964012 68.22 1.002468 
C 68.22 0 68.22 -1.002468 68.618285 -1.964012 
C 69.327136 -2.672864 70.035988 -3.381715 70.997532 -3.78 
C 72 -3.78 73.002468 -3.78 73.964012 -3.381715 
C 74.672864 -2.672864 75.381715 -1.964012 75.78 -1.002468 
C 75.78 0 75.78 1.002468 75.381715 1.964012 
C 74.672864 2.672864 73.964012 3.381715 73.002468 3.78 
z
" style="fill:#2ca02c;stroke:#2ca02c;stroke-linecap:butt;stroke-linejoin:miter;stroke-opacity:0.7;stroke-width:1.0;"/>
  </pattern>
 </defs>
</svg>
